<svg width="69" height="69" viewBox="0 0 69 69" fill="none" xmlns="http://www.w3.org/2000/svg">
<path d="M51.75 37.6362C42.228 37.6362 34.5 44.6617 34.5 53.318C34.5 61.9744 42.228 68.9999 51.75 68.9999C61.272 68.9999 69 61.9744 69 53.318C69 44.6617 61.272 37.6362 51.75 37.6362ZM62.1 54.8862H53.475V62.7271H50.025V54.8862H41.4V51.7499H50.025V43.909H53.475V51.7499H62.1V54.8862Z" fill="#4688DA"/>
<path d="M29.9805 43.9091C31.2225 41.5568 32.8785 39.4241 34.914 37.6364H13.8V31.3636H51.75C55.4415 31.3636 58.9605 32.1477 62.1 33.5277V12.5455C62.1 9.09545 58.995 6.27273 55.2 6.27273H40.779C39.33 2.63455 35.535 0 31.05 0C26.565 0 22.77 2.63455 21.321 6.27273H6.9C3.105 6.27273 0 9.09545 0 12.5455V56.4545C0 59.9045 3.105 62.7273 6.9 62.7273H29.9805C28.4625 59.8732 27.6 56.6741 27.6 53.3182C27.6 52.2518 27.7035 51.2168 27.876 50.1818H13.8V43.9091H29.9805ZM31.05 5.48864C32.4645 5.48864 33.6375 6.555 33.6375 7.84091C33.6375 9.12682 32.4645 10.1932 31.05 10.1932C29.6355 10.1932 28.4625 9.12682 28.4625 7.84091C28.4625 6.555 29.6355 5.48864 31.05 5.48864ZM13.8 18.8182H48.3V25.0909H13.8V18.8182Z" fill="#4688DA"/>
</svg>
